# MagicaVoxel @ Ephtracy

# group
o 

# material
mtllib DoubleDoor.mtl
usemtl palette

# normals
vn -1 0 0
vn 1 0 0
vn 0 0 1
vn 0 0 -1
vn 0 -1 0
vn 0 1 0

# texcoords
vt 0.224609 0.5
vt 0.474609 0.5
vt 0.955078 0.5

# verts
v -0.3 4.3 0.5
v -0.3 4.3 0.3
v -0.3 4.3 -0.3
v -0.3 4.3 -0.5
v -0.3 4.5 1.1
v -0.3 4.5 0.5
v -0.3 4.5 -0.5
v -0.3 4.5 -1.1
v -0.3 4.7 1.1
v -0.3 4.7 0.3
v -0.3 4.7 -0.3
v -0.3 4.7 -1.1
v -0.2 0 6.2
v -0.2 0 -6.2
v -0.2 0.6 5.5
v -0.2 0.6 3.6
v -0.2 0.6 2.6
v -0.2 0.6 0.7
v -0.2 0.6 -0.7
v -0.2 0.6 -2.6
v -0.2 0.6 -3.6
v -0.2 0.6 -5.5
v -0.2 4.1 5.5
v -0.2 4.1 3.6
v -0.2 4.1 2.6
v -0.2 4.1 0.7
v -0.2 4.1 -0.7
v -0.2 4.1 -2.6
v -0.2 4.1 -3.6
v -0.2 4.1 -5.5
v -0.2 4.3 0.5
v -0.2 4.3 0.3
v -0.2 4.3 -0.3
v -0.2 4.3 -0.5
v -0.2 4.5 1.1
v -0.2 4.5 0.5
v -0.2 4.5 -0.5
v -0.2 4.5 -1.1
v -0.2 4.7 1.1
v -0.2 4.7 0.3
v -0.2 4.7 -0.3
v -0.2 4.7 -1.1
v -0.2 4.9 5.5
v -0.2 4.9 3.6
v -0.2 4.9 2.6
v -0.2 4.9 0.7
v -0.2 4.9 -0.7
v -0.2 4.9 -2.6
v -0.2 4.9 -3.6
v -0.2 4.9 -5.5
v -0.2 8.4 5.5
v -0.2 8.4 3.6
v -0.2 8.4 2.6
v -0.2 8.4 0.7
v -0.2 8.4 -0.7
v -0.2 8.4 -2.6
v -0.2 8.4 -3.6
v -0.2 8.4 -5.5
v -0.2 9 6.2
v -0.2 9 -6.2
v 0.2 0 6.2
v 0.2 0 -6.2
v 0.2 0.6 5.5
v 0.2 0.6 3.6
v 0.2 0.6 2.6
v 0.2 0.6 0.7
v 0.2 0.6 -0.7
v 0.2 0.6 -2.6
v 0.2 0.6 -3.6
v 0.2 0.6 -5.5
v 0.2 4.1 5.5
v 0.2 4.1 3.6
v 0.2 4.1 2.6
v 0.2 4.1 0.7
v 0.2 4.1 -0.7
v 0.2 4.1 -2.6
v 0.2 4.1 -3.6
v 0.2 4.1 -5.5
v 0.2 4.3 0.5
v 0.2 4.3 0.3
v 0.2 4.3 -0.3
v 0.2 4.3 -0.5
v 0.2 4.5 1.1
v 0.2 4.5 0.5
v 0.2 4.5 -0.5
v 0.2 4.5 -1.1
v 0.2 4.7 1.1
v 0.2 4.7 0.3
v 0.2 4.7 -0.3
v 0.2 4.7 -1.1
v 0.2 4.9 5.5
v 0.2 4.9 3.6
v 0.2 4.9 2.6
v 0.2 4.9 0.7
v 0.2 4.9 -0.7
v 0.2 4.9 -2.6
v 0.2 4.9 -3.6
v 0.2 4.9 -5.5
v 0.2 8.4 5.5
v 0.2 8.4 3.6
v 0.2 8.4 2.6
v 0.2 8.4 0.7
v 0.2 8.4 -0.7
v 0.2 8.4 -2.6
v 0.2 8.4 -3.6
v 0.2 8.4 -5.5
v 0.2 9 6.2
v 0.2 9 -6.2
v 0.3 4.3 0.5
v 0.3 4.3 0.3
v 0.3 4.3 -0.3
v 0.3 4.3 -0.5
v 0.3 4.5 1.1
v 0.3 4.5 0.5
v 0.3 4.5 -0.5
v 0.3 4.5 -1.1
v 0.3 4.7 1.1
v 0.3 4.7 0.3
v 0.3 4.7 -0.3
v 0.3 4.7 -1.1
v -0.2 0 6.2
v -0.2 9 6.2
v 0.2 0 6.2
v 0.2 9 6.2
v -0.3 4.5 1.1
v -0.3 4.7 1.1
v -0.2 4.5 1.1
v -0.2 4.7 1.1
v 0.2 4.5 1.1
v 0.2 4.7 1.1
v 0.3 4.5 1.1
v 0.3 4.7 1.1
v -0.3 4.3 0.5
v -0.3 4.5 0.5
v -0.2 4.3 0.5
v -0.2 4.5 0.5
v 0.2 4.3 0.5
v 0.2 4.5 0.5
v 0.3 4.3 0.5
v 0.3 4.5 0.5
v -0.3 4.3 -0.3
v -0.3 4.7 -0.3
v -0.2 4.3 -0.3
v -0.2 4.7 -0.3
v 0.2 4.3 -0.3
v 0.2 4.7 -0.3
v 0.3 4.3 -0.3
v 0.3 4.7 -0.3
v -0.3 4.3 0.3
v -0.3 4.7 0.3
v -0.2 4.3 0.3
v -0.2 4.7 0.3
v 0.2 4.3 0.3
v 0.2 4.7 0.3
v 0.3 4.3 0.3
v 0.3 4.7 0.3
v -0.3 4.3 -0.5
v -0.3 4.5 -0.5
v -0.2 4.3 -0.5
v -0.2 4.5 -0.5
v 0.2 4.3 -0.5
v 0.2 4.5 -0.5
v 0.3 4.3 -0.5
v 0.3 4.5 -0.5
v -0.3 4.5 -1.1
v -0.3 4.7 -1.1
v -0.2 4.5 -1.1
v -0.2 4.7 -1.1
v 0.2 4.5 -1.1
v 0.2 4.7 -1.1
v 0.3 4.5 -1.1
v 0.3 4.7 -1.1
v -0.2 0 -6.2
v -0.2 9 -6.2
v 0.2 0 -6.2
v 0.2 9 -6.2
v -0.2 0 6.2
v 0.2 0 6.2
v -0.2 0 -6.2
v 0.2 0 -6.2
v -0.3 4.3 0.5
v -0.2 4.3 0.5
v 0.2 4.3 0.5
v 0.3 4.3 0.5
v -0.3 4.3 0.3
v -0.2 4.3 0.3
v 0.2 4.3 0.3
v 0.3 4.3 0.3
v -0.3 4.3 -0.3
v -0.2 4.3 -0.3
v 0.2 4.3 -0.3
v 0.3 4.3 -0.3
v -0.3 4.3 -0.5
v -0.2 4.3 -0.5
v 0.2 4.3 -0.5
v 0.3 4.3 -0.5
v -0.3 4.5 1.1
v -0.2 4.5 1.1
v 0.2 4.5 1.1
v 0.3 4.5 1.1
v -0.3 4.5 0.5
v -0.2 4.5 0.5
v 0.2 4.5 0.5
v 0.3 4.5 0.5
v -0.3 4.5 -0.5
v -0.2 4.5 -0.5
v 0.2 4.5 -0.5
v 0.3 4.5 -0.5
v -0.3 4.5 -1.1
v -0.2 4.5 -1.1
v 0.2 4.5 -1.1
v 0.3 4.5 -1.1
v -0.3 4.7 1.1
v -0.2 4.7 1.1
v 0.2 4.7 1.1
v 0.3 4.7 1.1
v -0.3 4.7 0.3
v -0.2 4.7 0.3
v 0.2 4.7 0.3
v 0.3 4.7 0.3
v -0.3 4.7 -0.3
v -0.2 4.7 -0.3
v 0.2 4.7 -0.3
v 0.3 4.7 -0.3
v -0.3 4.7 -1.1
v -0.2 4.7 -1.1
v 0.2 4.7 -1.1
v 0.3 4.7 -1.1
v -0.2 9 6.2
v 0.2 9 6.2
v -0.2 9 -6.2
v 0.2 9 -6.2

# faces
f 6/2/1 2/2/1 1/2/1
f 7/2/1 4/2/1 3/2/1
f 9/2/1 6/2/1 5/2/1
f 10/2/1 2/2/1 6/2/1
f 10/2/1 6/2/1 9/2/1
f 11/2/1 8/2/1 7/2/1
f 11/2/1 7/2/1 3/2/1
f 12/2/1 8/2/1 11/2/1
f 15/1/1 14/1/1 13/1/1
f 16/1/1 14/1/1 15/1/1
f 17/1/1 14/1/1 16/1/1
f 18/1/1 14/1/1 17/1/1
f 19/1/1 14/1/1 18/1/1
f 20/1/1 14/1/1 19/1/1
f 21/1/1 14/1/1 20/1/1
f 22/1/1 14/1/1 21/1/1
f 23/1/1 15/1/1 13/1/1
f 23/3/1 16/3/1 15/3/1
f 24/1/1 17/1/1 16/1/1
f 24/3/1 16/3/1 23/3/1
f 25/3/1 18/3/1 17/3/1
f 25/1/1 17/1/1 24/1/1
f 26/1/1 19/1/1 18/1/1
f 26/3/1 18/3/1 25/3/1
f 27/3/1 20/3/1 19/3/1
f 27/1/1 19/1/1 26/1/1
f 28/1/1 21/1/1 20/1/1
f 28/3/1 20/3/1 27/3/1
f 29/3/1 22/3/1 21/3/1
f 29/1/1 21/1/1 28/1/1
f 30/1/1 14/1/1 22/1/1
f 30/3/1 22/3/1 29/3/1
f 31/1/1 29/1/1 28/1/1
f 31/1/1 28/1/1 27/1/1
f 31/1/1 30/1/1 29/1/1
f 31/1/1 27/1/1 26/1/1
f 31/1/1 26/1/1 25/1/1
f 31/1/1 25/1/1 24/1/1
f 31/1/1 24/1/1 23/1/1
f 32/1/1 30/1/1 31/1/1
f 33/1/1 30/1/1 32/1/1
f 34/1/1 30/1/1 33/1/1
f 35/1/1 31/1/1 23/1/1
f 36/1/1 31/1/1 35/1/1
f 37/1/1 30/1/1 34/1/1
f 38/1/1 30/1/1 37/1/1
f 39/1/1 35/1/1 23/1/1
f 40/1/1 33/1/1 32/1/1
f 41/1/1 33/1/1 40/1/1
f 42/1/1 30/1/1 38/1/1
f 43/1/1 23/1/1 13/1/1
f 43/1/1 42/1/1 41/1/1
f 43/1/1 41/1/1 40/1/1
f 43/1/1 39/1/1 23/1/1
f 43/1/1 40/1/1 39/1/1
f 44/1/1 42/1/1 43/1/1
f 45/1/1 42/1/1 44/1/1
f 46/1/1 42/1/1 45/1/1
f 47/1/1 42/1/1 46/1/1
f 48/1/1 30/1/1 42/1/1
f 48/1/1 42/1/1 47/1/1
f 49/1/1 30/1/1 48/1/1
f 50/1/1 14/1/1 30/1/1
f 50/1/1 30/1/1 49/1/1
f 51/1/1 43/1/1 13/1/1
f 51/3/1 44/3/1 43/3/1
f 52/1/1 45/1/1 44/1/1
f 52/3/1 44/3/1 51/3/1
f 53/3/1 46/3/1 45/3/1
f 53/1/1 45/1/1 52/1/1
f 54/1/1 47/1/1 46/1/1
f 54/3/1 46/3/1 53/3/1
f 55/3/1 48/3/1 47/3/1
f 55/1/1 47/1/1 54/1/1
f 56/1/1 49/1/1 48/1/1
f 56/3/1 48/3/1 55/3/1
f 57/3/1 50/3/1 49/3/1
f 57/1/1 49/1/1 56/1/1
f 58/1/1 14/1/1 50/1/1
f 58/3/1 50/3/1 57/3/1
f 59/1/1 55/1/1 54/1/1
f 59/1/1 53/1/1 52/1/1
f 59/1/1 58/1/1 57/1/1
f 59/1/1 54/1/1 53/1/1
f 59/1/1 52/1/1 51/1/1
f 59/1/1 51/1/1 13/1/1
f 59/1/1 56/1/1 55/1/1
f 59/1/1 57/1/1 56/1/1
f 60/1/1 14/1/1 58/1/1
f 60/1/1 58/1/1 59/1/1
f 61/1/2 62/1/2 63/1/2
f 63/1/2 62/1/2 64/1/2
f 64/1/2 62/1/2 65/1/2
f 65/1/2 62/1/2 66/1/2
f 66/1/2 62/1/2 67/1/2
f 67/1/2 62/1/2 68/1/2
f 68/1/2 62/1/2 69/1/2
f 69/1/2 62/1/2 70/1/2
f 61/1/2 63/1/2 71/1/2
f 63/3/2 64/3/2 71/3/2
f 64/1/2 65/1/2 72/1/2
f 71/3/2 64/3/2 72/3/2
f 65/3/2 66/3/2 73/3/2
f 72/1/2 65/1/2 73/1/2
f 66/1/2 67/1/2 74/1/2
f 73/3/2 66/3/2 74/3/2
f 67/3/2 68/3/2 75/3/2
f 74/1/2 67/1/2 75/1/2
f 68/1/2 69/1/2 76/1/2
f 75/3/2 68/3/2 76/3/2
f 69/3/2 70/3/2 77/3/2
f 76/1/2 69/1/2 77/1/2
f 70/1/2 62/1/2 78/1/2
f 77/3/2 70/3/2 78/3/2
f 76/1/2 77/1/2 79/1/2
f 75/1/2 76/1/2 79/1/2
f 77/1/2 78/1/2 79/1/2
f 74/1/2 75/1/2 79/1/2
f 73/1/2 74/1/2 79/1/2
f 72/1/2 73/1/2 79/1/2
f 71/1/2 72/1/2 79/1/2
f 79/1/2 78/1/2 80/1/2
f 80/1/2 78/1/2 81/1/2
f 81/1/2 78/1/2 82/1/2
f 71/1/2 79/1/2 83/1/2
f 83/1/2 79/1/2 84/1/2
f 82/1/2 78/1/2 85/1/2
f 85/1/2 78/1/2 86/1/2
f 71/1/2 83/1/2 87/1/2
f 80/1/2 81/1/2 88/1/2
f 88/1/2 81/1/2 89/1/2
f 86/1/2 78/1/2 90/1/2
f 61/1/2 71/1/2 91/1/2
f 89/1/2 90/1/2 91/1/2
f 88/1/2 89/1/2 91/1/2
f 71/1/2 87/1/2 91/1/2
f 87/1/2 88/1/2 91/1/2
f 91/1/2 90/1/2 92/1/2
f 92/1/2 90/1/2 93/1/2
f 93/1/2 90/1/2 94/1/2
f 94/1/2 90/1/2 95/1/2
f 90/1/2 78/1/2 96/1/2
f 95/1/2 90/1/2 96/1/2
f 96/1/2 78/1/2 97/1/2
f 78/1/2 62/1/2 98/1/2
f 97/1/2 78/1/2 98/1/2
f 61/1/2 91/1/2 99/1/2
f 91/3/2 92/3/2 99/3/2
f 92/1/2 93/1/2 100/1/2
f 99/3/2 92/3/2 100/3/2
f 93/3/2 94/3/2 101/3/2
f 100/1/2 93/1/2 101/1/2
f 94/1/2 95/1/2 102/1/2
f 101/3/2 94/3/2 102/3/2
f 95/3/2 96/3/2 103/3/2
f 102/1/2 95/1/2 103/1/2
f 96/1/2 97/1/2 104/1/2
f 103/3/2 96/3/2 104/3/2
f 97/3/2 98/3/2 105/3/2
f 104/1/2 97/1/2 105/1/2
f 98/1/2 62/1/2 106/1/2
f 105/3/2 98/3/2 106/3/2
f 102/1/2 103/1/2 107/1/2
f 100/1/2 101/1/2 107/1/2
f 105/1/2 106/1/2 107/1/2
f 101/1/2 102/1/2 107/1/2
f 99/1/2 100/1/2 107/1/2
f 61/1/2 99/1/2 107/1/2
f 103/1/2 104/1/2 107/1/2
f 104/1/2 105/1/2 107/1/2
f 106/1/2 62/1/2 108/1/2
f 107/1/2 106/1/2 108/1/2
f 109/2/2 110/2/2 114/2/2
f 111/2/2 112/2/2 115/2/2
f 113/2/2 114/2/2 117/2/2
f 114/2/2 110/2/2 118/2/2
f 117/2/2 114/2/2 118/2/2
f 115/2/2 116/2/2 119/2/2
f 111/2/2 115/2/2 119/2/2
f 119/2/2 116/2/2 120/2/2
f 123/1/3 122/1/3 121/1/3
f 124/1/3 122/1/3 123/1/3
f 127/2/3 126/2/3 125/2/3
f 128/2/3 126/2/3 127/2/3
f 131/2/3 130/2/3 129/2/3
f 132/2/3 130/2/3 131/2/3
f 135/2/3 134/2/3 133/2/3
f 136/2/3 134/2/3 135/2/3
f 139/2/3 138/2/3 137/2/3
f 140/2/3 138/2/3 139/2/3
f 143/2/3 142/2/3 141/2/3
f 144/2/3 142/2/3 143/2/3
f 147/2/3 146/2/3 145/2/3
f 148/2/3 146/2/3 147/2/3
f 149/2/4 150/2/4 151/2/4
f 151/2/4 150/2/4 152/2/4
f 153/2/4 154/2/4 155/2/4
f 155/2/4 154/2/4 156/2/4
f 157/2/4 158/2/4 159/2/4
f 159/2/4 158/2/4 160/2/4
f 161/2/4 162/2/4 163/2/4
f 163/2/4 162/2/4 164/2/4
f 165/2/4 166/2/4 167/2/4
f 167/2/4 166/2/4 168/2/4
f 169/2/4 170/2/4 171/2/4
f 171/2/4 170/2/4 172/2/4
f 173/1/4 174/1/4 175/1/4
f 175/1/4 174/1/4 176/1/4
f 179/1/5 178/1/5 177/1/5
f 180/1/5 178/1/5 179/1/5
f 185/2/5 182/2/5 181/2/5
f 186/2/5 182/2/5 185/2/5
f 187/2/5 184/2/5 183/2/5
f 188/2/5 184/2/5 187/2/5
f 193/2/5 190/2/5 189/2/5
f 194/2/5 190/2/5 193/2/5
f 195/2/5 192/2/5 191/2/5
f 196/2/5 192/2/5 195/2/5
f 201/2/5 198/2/5 197/2/5
f 202/2/5 198/2/5 201/2/5
f 203/2/5 200/2/5 199/2/5
f 204/2/5 200/2/5 203/2/5
f 209/2/5 206/2/5 205/2/5
f 210/2/5 206/2/5 209/2/5
f 211/2/5 208/2/5 207/2/5
f 212/2/5 208/2/5 211/2/5
f 213/2/6 214/2/6 217/2/6
f 217/2/6 214/2/6 218/2/6
f 215/2/6 216/2/6 219/2/6
f 219/2/6 216/2/6 220/2/6
f 221/2/6 222/2/6 225/2/6
f 225/2/6 222/2/6 226/2/6
f 223/2/6 224/2/6 227/2/6
f 227/2/6 224/2/6 228/2/6
f 229/1/6 230/1/6 231/1/6
f 231/1/6 230/1/6 232/1/6
